<svg width="80" height="80" viewBox="0 0 80 80" xmlns="http://www.w3.org/2000/svg">
  <!-- Background circle -->
  <circle cx="40" cy="40" r="38" fill="#E65100" stroke="#BF360C" stroke-width="2"/>
  
  <!-- Sunrise mountains -->
  <polygon points="10,65 25,45 40,55 55,35 70,65" fill="#4CAF50"/>
  <polygon points="15,65 30,50 45,58 60,40 75,65" fill="#2E7D32"/>
  
  <!-- Sun -->
  <circle cx="40" cy="35" r="12" fill="#FFD700"/>
  <circle cx="40" cy="35" r="10" fill="#FFC107"/>
  
  <!-- Sun rays -->
  <g stroke="#FFD700" stroke-width="2" stroke-linecap="round">
    <line x1="40" y1="18" x2="40" y2="22"/>
    <line x1="52" y1="23" x2="50" y2="27"/>
    <line x1="57" y1="35" x2="53" y2="35"/>
    <line x1="52" y1="47" x2="50" y2="43"/>
    <line x1="28" y1="47" x2="30" y2="43"/>
    <line x1="23" y1="35" x2="27" y2="35"/>
    <line x1="28" y1="23" x2="30" y2="27"/>
  </g>
  
  <!-- School building -->
  <rect x="28" y="55" width="24" height="18" fill="#FFF"/>
  <rect x="28" y="55" width="24" height="4" fill="#667eea"/>
  <polygon points="26,55 40,45 54,55" fill="#D32F2F"/>
  
  <!-- Clock tower -->
  <rect x="37" y="45" width="6" height="10" fill="#FFF"/>
  <rect x="35" y="40" width="10" height="5" fill="#424242"/>
  <circle cx="40" cy="42.5" r="2" fill="#FFF"/>
  <line x1="40" y1="42.5" x2="40" y2="41" stroke="#000" stroke-width="1"/>
  <line x1="40" y1="42.5" x2="41.5" y2="42.5" stroke="#000" stroke-width="1"/>
</svg>
